<svg xmlns="http://www.w3.org/2000/svg" version="1.1" xmlns:xlink="http://www.w3.org/1999/xlink" xmlns:svgjs="http://svgjs.dev/svgjs" width="1000" height="1000" viewBox="0 0 1000 1000"><rect width="1000" height="1000" fill="#000000"></rect><g transform="matrix(0.7,0,0,0.7,149.57575763122213,302.8658720569248)"><svg viewBox="0 0 396 223" data-background-color="#636365" preserveAspectRatio="xMidYMid meet" height="563" width="1000" xmlns="http://www.w3.org/2000/svg" xmlns:xlink="http://www.w3.org/1999/xlink"><g id="tight-bounds" transform="matrix(1,0,0,1,0.23999996862289663,0.047603479588389064)"><svg viewBox="0 0 395.52 222.90479304082322" height="222.90479304082322" width="395.52"><g><svg viewBox="0 0 395.52 222.90479304082322" height="222.90479304082322" width="395.52"><g transform="matrix(1,0,0,1,0,186.24899779213675)"><svg viewBox="0 0 395.52 36.65579524868646" height="36.65579524868646" width="395.52"><g id="textblocktransform"><svg viewBox="0 0 395.52 36.65579524868646" height="36.65579524868646" width="395.52" id="textblock"><g><svg viewBox="0 0 395.52 36.65579524868646" height="36.65579524868646" width="395.52"><g transform="matrix(1,0,0,1,0,0)"><svg width="395.52" viewBox="2.319999933242798 -38.400001525878906 420.75 38.989715576171875" height="36.65579524868646" data-palette-color="#ffffff"><path d="M32.54 0L8.91-29.74 8.91-2.64 12.62-2.08 12.62 0 2.32 0 2.32-2.08 6.1-2.64 6.1-34.18 2.32-34.74 2.32-36.82 9.06-36.82 32.71-7.08 32.71-34.18 29.03-34.74 29.03-36.82 39.26-36.82 39.26-34.74 35.57-34.18 35.57 0 32.54 0ZM61.69-15.09L60.96-17.65 51.98-17.65 51.98-2.93 65.57-2.93 67.33-7.25 69.19-7.25 68.38 0 43.67 0 43.67-2.08 47.39-2.64 47.39-34.18 43.67-34.74 43.67-36.82 67.31-36.82 67.87-29.57 65.72-29.57 64.4-33.86 51.98-33.86 51.98-20.58 60.96-20.58 61.69-23.17 63.43-23.17 63.43-15.09 61.69-15.09ZM78.66-34.18L89.35-5.86 95.62-26.27 95.38-23.02 91.13-34.18 88.08-34.74 88.08-36.82 99.51-36.82 99.53-34.74 95.97-34.18 105.46-6.03Q106.76-9.5 107.88-13.04L107.88-13.04 112.28-27.2Q113.4-30.71 114.69-34.18L114.69-34.18 111.18-34.74 111.18-36.82 120.55-36.82 120.55-34.74 117.84-34.28 106.03 0 103.39 0 95.67-22.17 96.87-21.9 89.91 0 87.28 0 73.82-34.18 71.04-34.74 71.04-36.82 81.73-36.82 81.9-34.74 78.66-34.18ZM135.27-2.34L135.27-2.34Q137.08-2.34 138.55-2.7 140.03-3.05 141.11-3.81L141.11-3.81Q143.4-5.4 143.4-8.45L143.4-8.45Q143.4-11.04 141.72-12.7L141.72-12.7Q139.93-14.4 135.94-16.15 131.95-17.9 129.86-19.27 127.78-20.65 126.58-22.07L126.58-22.07Q124.41-24.56 124.41-28.1L124.41-28.1Q124.41-32.2 127.95-34.86L127.95-34.86Q131.24-37.38 135.93-37.38L135.93-37.38Q139.62-37.38 143.3-36.04L143.3-36.04Q144.84-35.42 146.09-34.69L146.09-34.69 145.23-28.17 143.18-28.17Q143.18-31.54 141.35-33.07 139.52-34.59 136.05-34.59L136.05-34.59Q131.27-34.59 129.51-31.47L129.51-31.47Q128.95-30.44 128.95-29.17 128.95-27.91 129.31-26.89 129.68-25.88 130.73-24.9L130.73-24.9Q132.78-22.92 138.44-20.56L138.44-20.56Q146.35-17.19 147.67-12.6L147.67-12.6Q148.06-11.16 148.06-9.53 148.06-7.91 147.51-6.46 146.97-5 146.01-3.87 145.06-2.73 143.8-1.9 142.55-1.07 141.13-0.54L141.13-0.54Q134.86 1.9 127.95-0.93L127.95-0.93Q125.43-1.98 123.5-3.49L123.5-3.49 124.53-10.5 126.6-10.5Q126.6-5.59 129.7-3.66L129.7-3.66Q131.83-2.34 135.27-2.34ZM188.83-37.38L188.83-37.38Q193.79-37.38 197.91-36.13L197.91-36.13Q199.72-35.57 200.94-34.89L200.94-34.89 200.38-28.37 198.77-28.37Q198.77-31.08 196.11-32.71L196.11-32.71Q193.27-34.45 188.32-34.45L188.32-34.45Q181.9-34.45 177.7-30.13L177.7-30.13Q173.52-25.78 173.52-19.26L173.52-19.26Q173.52-12.35 177.38-7.54L177.38-7.54Q179.99-4.3 184-3.03L184-3.03Q186.05-2.37 188.66-2.37 191.27-2.37 193.3-2.67 195.32-2.98 196.62-3.66L196.62-3.66Q199.16-5 199.16-8.2L199.16-8.2 200.77-8.2 201.11-1.9Q196.86 0.56 188.59 0.56L188.59 0.56Q179.46 0.56 174.01-4.74L174.01-4.74Q168.81-9.79 168.81-17.77L168.81-17.77Q168.81-26.61 174.96-32.18L174.96-32.18Q180.65-37.38 188.83-37.38ZM206.85-34.74L206.85-36.82 218.81-36.82 218.81-34.74 215.07-34.18 215.07-20.24 235.46-20.24 235.46-34.18 231.75-34.74 231.75-36.82 243.71-36.82 243.71-34.74 240.02-34.18 240.02-2.64 243.71-2.08 243.71 0 231.75 0 231.75-2.08 235.46-2.64 235.46-17.31 215.07-17.31 215.07-2.64 218.81-2.08 218.81 0 206.85 0 206.85-2.08 210.56-2.64 210.56-34.18 206.85-34.74ZM271.96 0L271.96-2.08 275.32-2.64 271.47-12.13 256.82-12.13 252.99-2.64 256.43-2.08 256.43 0 245.95 0 245.95-2.08 249.81-2.64 262.63-34.33 261.6-36.74 265.56-38.4 280.16-2.64 284.09-2.08 284.09 0 271.96 0ZM264.17-30.76L257.97-15.09 270.39-15.09 264.17-30.76ZM316.19 0L292.56-29.74 292.56-2.64 296.27-2.08 296.27 0 285.97 0 285.97-2.08 289.75-2.64 289.75-34.18 285.97-34.74 285.97-36.82 292.7-36.82 316.36-7.08 316.36-34.18 312.68-34.74 312.68-36.82 322.9-36.82 322.9-34.74 319.22-34.18 319.22 0 316.19 0ZM357.86 0L334.23-29.74 334.23-2.64 337.94-2.08 337.94 0 327.64 0 327.64-2.08 331.42-2.64 331.42-34.18 327.64-34.74 327.64-36.82 334.38-36.82 358.03-7.08 358.03-34.18 354.35-34.74 354.35-36.82 364.58-36.82 364.58-34.74 360.89-34.18 360.89 0 357.86 0ZM387.01-15.09L386.28-17.65 377.29-17.65 377.29-2.93 390.89-2.93 392.65-7.25 394.51-7.25 393.7 0 368.99 0 368.99-2.08 372.7-2.64 372.7-34.18 368.99-34.74 368.99-36.82 392.63-36.82 393.19-29.57 391.04-29.57 389.72-33.86 377.29-33.86 377.29-20.58 386.28-20.58 387.01-23.17 388.74-23.17 388.74-15.09 387.01-15.09ZM397.95-36.82L409.91-36.82 409.91-34.74 406.25-34.18 406.25-2.93 419.63-2.93 421.07-8.4 423.07-8.4 422.85 0 397.95 0 397.95-2.08 401.66-2.64 401.66-34.18 397.95-34.74 397.95-36.82Z" opacity="1" transform="matrix(1,0,0,1,0,0)" fill="#ffffff" class="undefined-text-0" data-fill-palette-color="primary" id="text-0"></path></svg></g></svg></g></svg></g></svg></g><g transform="matrix(1,0,0,1,113.28905462306052,0)"><svg viewBox="0 0 168.94189075387894 168.94189075387894" height="168.94189075387894" width="168.94189075387894"><g><svg></svg></g><g id="icon-0"><svg viewBox="0 0 168.94189075387894 168.94189075387894" height="168.94189075387894" width="168.94189075387894"><g><path d="M0 84.471c0-46.652 37.819-84.471 84.471-84.471 46.652 0 84.471 37.819 84.471 84.471 0 46.652-37.819 84.471-84.471 84.471-46.652 0-84.471-37.819-84.471-84.471zM84.471 165.636c44.826 0 81.165-36.339 81.165-81.165 0-44.826-36.339-81.165-81.165-81.165-44.826 0-81.165 36.339-81.165 81.165 0 44.826 36.339 81.165 81.165 81.165z" data-fill-palette-color="accent" fill="#ffffff" stroke="transparent"></path></g><g transform="matrix(1,0,0,1,44.36216106150589,44.36232710188159)"><svg viewBox="0 0 80.21756863086716 80.21723655011576" height="80.21723655011576" width="80.21756863086716"><g><svg xmlns="http://www.w3.org/2000/svg" xmlns:xlink="http://www.w3.org/1999/xlink" version="1.0" x="0" y="0" viewBox="4.667734146118164 4.6859588623046875 90.3050308227539 90.30465698242188" enable-background="new 0 0 100 100" xml:space="preserve" height="80.21723655011576" width="80.21756863086716" class="icon-s-0" data-fill-palette-color="accent" id="s-0"><path d="M17.504 35.743c-1.334 8.611 0.522 17.134 5.093 23.382 3.514 4.801 8.413 7.905 13.796 8.739 5.677 0.88 11.253-0.429 15.703-3.685 1.248-0.912 2.36-1.946 3.326-3.076-2.222 0.978-4.814 1.267-7.626 0.831-11.717-1.816-19.673-13.464-17.735-25.964 0.934-6.03 4.384-11.497 9.713-15.397 6.768-4.952 15.953-6.97 25.201-5.537 7.474 1.158 17.67 5.964 25.56 15.213 0 0-22.835-39.421-56.115-20.356C23.689 16.04 18.653 28.323 17.504 35.743z" fill="#ffffff" data-fill-palette-color="accent"></path><path d="M82.544 65.256c1.659-8.555 0.125-17.141-4.207-23.557-3.331-4.931-8.109-8.217-13.457-9.253-5.639-1.094-11.261 0.004-15.83 3.091-1.282 0.863-2.431 1.854-3.44 2.947 2.257-0.894 4.859-1.084 7.652-0.543 11.64 2.257 19.151 14.196 16.744 26.616-1.161 5.989-4.815 11.324-10.288 15.019-6.949 4.692-16.205 6.364-25.393 4.582C26.902 82.719 16.894 77.532 9.358 67.992c0 0 21.331 40.255 55.307 22.457C75.621 84.712 81.115 72.628 82.544 65.256z" fill="#ffffff" data-fill-palette-color="accent"></path><path d="M35.726 82.88c8.611 1.334 17.133-0.522 23.381-5.094 4.801-3.514 7.905-8.413 8.74-13.796 0.879-5.676-0.429-11.253-3.686-15.702-0.912-1.248-1.946-2.36-3.076-3.327 0.979 2.222 1.267 4.815 0.831 7.626-1.816 11.717-13.463 19.673-25.965 17.736-6.029-0.934-11.497-4.385-15.395-9.713-4.952-6.768-6.971-15.954-5.538-25.202 1.158-7.474 5.964-17.67 15.213-25.559 0 0-39.421 22.835-20.356 56.115C16.022 76.695 28.305 81.73 35.726 82.88z" fill="#ffffff" data-fill-palette-color="accent"></path><path d="M90.432 35.718c-5.738-10.955-17.822-16.45-25.194-17.879-8.554-1.659-17.141-0.125-23.557 4.208-4.931 3.331-8.217 8.108-9.254 13.456-1.094 5.64 0.004 11.261 3.092 15.83 0.863 1.282 1.854 2.431 2.946 3.441-0.894-2.257-1.084-4.859-0.542-7.652 2.257-11.64 14.196-19.151 26.615-16.744 5.99 1.161 11.324 4.816 15.019 10.289 4.693 6.949 6.363 16.204 4.583 25.392-1.44 7.423-6.626 17.431-16.167 24.966C67.973 91.025 108.228 69.694 90.432 35.718z" fill="#ffffff" data-fill-palette-color="accent"></path></svg></g></svg></g></svg></g></svg></g><g></g></svg></g><defs></defs></svg><rect width="395.52" height="222.90479304082322" fill="none" stroke="none" visibility="hidden"></rect></g></svg></g></svg>